# xmcd CD database file
#
# Track frame offsets:
#	150
#	17042
#	35900
#	50590
#	71905
#	92127
#	111075
#	130290
#	147120
#	165722
#	177837
#
# Disc length: 2648 seconds
#
# Revision: 8
# Processed by: cddbd v1.5.2PL0 Copyright (c) Steve Scherf et al.
# Submitted via: CDex 1.50
#
DISCID=9f0a560b
DTITLE=Bonnie Raitt - Fundamental
DYEAR=1998
DGENRE=Blues
TTITLE0=The Fundamental Things
TTITLE1=Cure For Love
TTITLE2=Round and Round
TTITLE3=Spit Of Love
TTITLE4=Lover's Will
TTITLE5=Blue For No Reason
TTITLE6=Meet Me Half Way
TTITLE7=I'm On Your Side
TTITLE8=Fearless Love
TTITLE9=I Need Love
TTITLE10=One Belief Away
EXTD=YEAR: 1998
EXTT0=
EXTT1=
EXTT2=
EXTT3=
EXTT4=
EXTT5=
EXTT6=
EXTT7=
EXTT8=
EXTT9=
EXTT10=
PLAYORDER=
